<svg width="70" height="70" viewBox="0 0 70 70" fill="none" xmlns="http://www.w3.org/2000/svg">
    <rect width="70" height="70" rx="35" fill="#16192C"/>
    <g clip-path="url(#clip0_922_249)">
        <path d="M34.125 23.5132C34.2702 23.6897 34.3592 23.9056 34.3804 24.1331C34.4016 24.3606 34.3541 24.5893 34.244 24.7895C33.384 26.3684 32.9349 28.1383 32.938 29.9362C32.938 35.9175 37.814 40.7608 43.8235 40.7608C44.6074 40.7608 45.3705 40.679 46.1038 40.5228C46.3286 40.4741 46.5628 40.4927 46.7771 40.5763C46.9914 40.6599 47.1763 40.8048 47.3087 40.9928C47.4485 41.1884 47.5198 41.4246 47.5115 41.6648C47.5031 41.9051 47.4156 42.1358 47.2626 42.3212C46.0959 43.7543 44.6242 44.909 42.9546 45.7011C41.285 46.4931 39.4597 46.9026 37.6117 46.8997C30.7543 46.8997 25.2 41.3751 25.2 34.5683C25.2 29.4454 28.3446 25.0513 32.822 23.1889C33.045 23.0947 33.2926 23.0753 33.5276 23.1338C33.7625 23.1923 33.9722 23.3254 34.125 23.5132V23.5132Z" fill="white"/>
        <path d="M41.2561 27.7825C41.2774 27.7181 41.3185 27.662 41.3735 27.6223C41.4285 27.5825 41.4947 27.5612 41.5625 27.5612C41.6304 27.5612 41.6965 27.5825 41.7515 27.6223C41.8065 27.662 41.8476 27.7181 41.8689 27.7825L42.4446 29.5109C42.7019 30.2815 43.3059 30.8854 44.0764 31.1427L45.8049 31.7184C45.8693 31.7397 45.9253 31.7808 45.9651 31.8358C46.0048 31.8908 46.0262 31.957 46.0262 32.0248C46.0262 32.0927 46.0048 32.1588 45.9651 32.2138C45.9253 32.2688 45.8693 32.3099 45.8049 32.3312L44.0764 32.9069C43.6964 33.0335 43.3511 33.2469 43.0678 33.5301C42.7846 33.8134 42.5712 34.1587 42.4446 34.5387L41.8689 36.2672C41.8476 36.3316 41.8065 36.3876 41.7515 36.4274C41.6965 36.4671 41.6304 36.4885 41.5625 36.4885C41.4947 36.4885 41.4285 36.4671 41.3735 36.4274C41.3185 36.3876 41.2774 36.3316 41.2561 36.2672L40.6804 34.5387C40.5538 34.1587 40.3404 33.8134 40.0572 33.5301C39.774 33.2469 39.4287 33.0335 39.0486 32.9069L37.3202 32.3312C37.2558 32.3099 37.1997 32.2688 37.16 32.2138C37.1202 32.1588 37.0988 32.0927 37.0988 32.0248C37.0988 31.957 37.1202 31.8908 37.16 31.8358C37.1997 31.7808 37.2558 31.7397 37.3202 31.7184L39.0486 31.1427C39.4287 31.0161 39.774 30.8027 40.0572 30.5195C40.3404 30.2363 40.5538 29.891 40.6804 29.5109L41.2561 27.7825V27.7825ZM45.8212 23.2471C45.8359 23.2047 45.8634 23.168 45.9 23.142C45.9365 23.116 45.9802 23.1021 46.025 23.1021C46.0698 23.1021 46.1136 23.116 46.1501 23.142C46.1866 23.168 46.2141 23.2047 46.2288 23.2471L46.6126 24.3984C46.7836 24.9131 47.1868 25.3162 47.7014 25.4873L48.8528 25.871C48.8951 25.8857 48.9318 25.9132 48.9578 25.9498C48.9838 25.9863 48.9978 26.03 48.9978 26.0748C48.9978 26.1197 48.9838 26.1634 48.9578 26.1999C48.9318 26.2364 48.8951 26.2639 48.8528 26.2786L47.7014 26.6624C47.4478 26.7468 47.2173 26.8891 47.0283 27.0781C46.8393 27.2671 46.697 27.4976 46.6126 27.7512L46.2288 28.9026C46.2141 28.9449 46.1866 28.9816 46.1501 29.0076C46.1136 29.0336 46.0698 29.0476 46.025 29.0476C45.9802 29.0476 45.9365 29.0336 45.9 29.0076C45.8634 28.9816 45.8359 28.9449 45.8212 28.9026L45.4375 27.7512C45.3531 27.4976 45.2107 27.2671 45.0217 27.0781C44.8327 26.8891 44.6022 26.7468 44.3486 26.6624L43.1973 26.2786C43.1549 26.2639 43.1182 26.2364 43.0922 26.1999C43.0662 26.1634 43.0522 26.1197 43.0522 26.0748C43.0522 26.03 43.0662 25.9863 43.0922 25.9498C43.1182 25.9132 43.1549 25.8857 43.1973 25.871L44.3486 25.4873C44.8633 25.3162 45.2664 24.9131 45.4375 24.3984L45.8212 23.2486V23.2471Z" fill="white"/>
    </g>
    <defs>
        <clipPath id="clip0_922_249">
            <rect x="25.2" y="23.0999" width="23.8" height="23.8" rx="11.9" fill="white"/>
        </clipPath>
    </defs>
</svg>
