<?xml version="1.0" encoding="UTF-8"?>
<svg width="500px" height="500px" viewBox="0 0 500 500" version="1.1" xmlns="http://www.w3.org/2000/svg" xmlns:xlink="http://www.w3.org/1999/xlink">
    <!-- Generator: Sketch 63.1 (92452) - https://sketch.com -->
    <title>NBA</title>
    <desc>Created with Sketch.</desc>
    <defs>
        <polygon id="path-1" points="0.052 0 220.259867 0 220.259867 499.947917 0.052 499.947917"></polygon>
    </defs>
    <g id="NBA" stroke="none" stroke-width="1" fill="none" fill-rule="evenodd">
        <g id="Company-Logos-/-External-/-NBA" transform="translate(139.000000, 0.000000)">
            <g>
                <g id="Group-3">
                    <mask id="mask-2" fill="white">
                        <use xlink:href="#path-1"></use>
                    </mask>
                    <g id="Clip-2"></g>
                    <path d="M168.558,0 L51.6715333,0 C23.1590667,0 0,23.2300347 0,51.7508681 L0,448.174479 C0,476.741319 23.1590667,500 51.6715333,500 L168.4748,500 C196.982067,500 220.259867,476.741319 220.259867,448.174479 L220.259867,51.7508681 C220.259867,23.2300347 197.053133,0 168.558,0" id="Fill-1" fill="#FFFFFE" mask="url(#mask-2)"></path>
                </g>
                <path d="M139.563667,91.6614583 L139.685867,93.3524306 C143.251333,95.4322917 145.0566,97.1267361 148.648067,99.4453125 C158.183133,105.453125 169.924733,116.134549 168.4436,152.945313 C171.114667,160.972222 172.2968,176.748264 174.765933,181.805556 C179.729333,191.664063 183.044333,198.078993 184.494267,207.388889 C184.494267,207.388889 185.926,221.875868 187.791933,222.922743 C197.647667,225.151042 194.7998,226.123264 196.241067,227.815104 C197.770733,229.797743 203.4604,229.705729 203.4604,235.017361 C205.437267,237.664063 206.895,240.414063 208.008667,243.275174 L208.008667,51.7508681 C208.008667,29.9236111 190.2836,12.2022569 168.557133,12.2022569 L130.792133,12.2022569 C136.860533,14.3585069 140.281267,16.9088542 142.280667,20.9557292 C147.159133,21.3758681 152.957133,32.3229167 143.923867,48.4930556 C147.9244,51.1605903 144.803533,55.1475694 141.933133,59.7769097 C141.092467,61.2630208 140.172933,63.8958333 137.501867,63.7222222 C134.073333,70.9470486 129.928933,77.9496528 126.802,78.3923611 C125.853867,79.5642361 125.164867,82.6736111 126.5914,84.1336806 C131.1882,86.1987847 136.789467,89.0286458 139.563667,91.6614583" id="Fill-4" fill="#BD2531"></path>
                <path d="M208.006933,269.224826 C202.884067,282.24566 190.128467,291.447917 175.228733,291.447917 C155.727,291.447917 140.009133,275.659722 140.009133,256.189236 C140.009133,239.553819 151.4266,225.603299 166.921733,221.877604 C162.860533,211.703125 154.2918,195.210938 151.745533,189.796875 C149.3362,184.425347 143.529533,150.884549 142.278933,144.249132 C141.994667,142.800347 127.086267,152.914931 127.057667,153.539931 C126.1858,154.387153 115.8716,181.365451 115.438267,182.822917 C115.230267,183.743924 115.205133,187.346354 115.205133,187.346354 C115.205133,187.346354 120.276867,187.973958 123.1958,196.836806 C126.083533,205.6875 134.892333,237.999132 134.892333,237.999132 C134.892333,237.999132 132.508133,240.469618 132.405867,240.318576 C143.529533,277.618924 139.642533,293.672743 144.634533,304.608507 C150.908333,320.026042 152.600067,318.006076 157.982067,330.961806 C161.843933,340.400174 166.149533,377.539063 167.5882,379.184896 C173.5942,386.809028 176.826,392.770833 176.826,397.072049 C176.826,401.399306 171.7404,414.189236 173.5942,421.639757 C174.719133,426.020833 175.305867,435.847222 177.344267,437.712674 C177.344267,437.712674 179.2128,441.401042 178.295867,443.038194 C178.030667,443.605903 177.498533,444.461806 177.737733,445.134549 C181.049267,456.849826 191.740467,476.822049 174.425333,487.282118 L174.796267,487.282118 C193.693933,484.352431 208.006933,468.113715 208.006933,448.175347 L208.006933,269.224826" id="Fill-5" fill="#BD2531"></path>
                <path d="M163.5322,440.578993 C157.184733,434.905382 161.425333,432.506944 161.1714,430.267361 C156.9854,412.950521 143.253067,402.476562 150.3554,396.760417 C148.603867,391.041667 145.0358,383.861979 145.166667,383.873264 C123.7652,371.565104 105.5418,351.569444 102.446067,348.637153 C98.6925333,344.552951 92.2991333,340.447917 91.0979333,337.131076 C85.9542667,332.398437 60.7282,296.55816 54.8530667,283.360243 L44.6151333,281.911458 C39.9594,262.854167 24.4096667,246.883681 24.0257333,227.778646 C23.8801333,220.556424 27.2922,205.081597 28.5653333,201.99566 C29.8098667,198.866319 35.7673333,193.726562 35.7673333,193.726562 L35.7673333,188.614583 C13.4342,189.250868 19.8562,186.966146 16.0064667,178.269097 C13.3033333,172.248264 15.2403333,170.924479 16.2136,166.748264 C19.2096667,154.420139 29.1659333,135.408854 33.2834667,126.769097 C34.5427333,122.41059 38.8483333,111.900174 38.8483333,111.900174 C55.4944,77.9505208 61.7084,80.4461806 81.4779333,78.5321181 L82.4520667,77.1293403 C102.261467,76.2699653 99.0175333,74.7725694 101.814267,55.6588542 C98.9265333,56.9001736 98.0694,49.6744792 98.0694,49.6744792 C96.4912,38.7960069 101.070667,40.8576389 103.246867,40.6414931 C103.710533,22.7569444 105.5418,17.1284722 118.4196,12.1996528 L51.6949333,12.1996528 C29.8636,12.1996528 12.181,29.9244792 12.181,51.7743056 L12.181,448.174479 C12.181,470.049479 29.8636,487.771701 51.6949333,487.771701 L168.558867,487.771701 C155.179267,480.532118 163.076333,466.746528 163.5322,440.578993" id="Fill-6" fill="#253B72"></path>
                <path d="M45.3986,462.859375 L37.0543333,462.859375 L37.0543333,391.088542 L50.2684,391.088542 L60.8928667,449.894097 C59.9993333,435.822917 58.8016,418.835069 58.8016,404.360243 L58.8016,391.088542 L67.1484667,391.088542 L67.1484667,462.859375 L55.0307333,462.859375 L44.4097333,405.357639 C45.1048,418.62934 45.3986,429.189236 45.3986,440.243924 L45.3986,462.859375 Z M118.8798,399.132812 L118.384933,399.132812 C117.7904,407.775174 116.597867,422.953993 116.198333,427.779514 L115.111533,440.140625 L122.557067,440.140625 L121.462467,427.779514 C121.0638,422.855903 119.6754,407.878472 118.8798,399.132812 L118.8798,399.132812 Z M123.155067,448.282986 L114.5144,448.282986 L113.316667,462.859375 L103.687133,462.859375 L112.3278,391.088542 L126.031533,391.088542 L134.371467,462.859375 L124.345,462.859375 L123.155067,448.282986 Z M83.3326,400.135417 L83.3326,423.858507 L86.9076,423.858507 C90.2841333,423.858507 91.1776667,422.647569 91.1776667,418.731771 L91.1776667,404.962674 C91.1776667,401.640625 90.1792667,400.135417 87.0055333,400.135417 L83.3326,400.135417 Z M83.3326,431.697049 L83.3326,453.811632 L87.0055333,453.811632 C90.2841333,453.811632 91.1776667,452.100694 91.1776667,448.684896 L91.1776667,436.522569 C91.1776667,433.001736 90.0856667,431.697049 86.9076,431.697049 L83.3326,431.697049 Z M73.801,462.859375 L73.801,391.088542 L87.7006,391.088542 C95.7415333,391.088542 100.711867,395.413194 100.711867,405.465278 L100.711867,416.12066 C100.711867,422.647569 98.7263333,425.969618 95.94,427.578125 C98.7263333,429.490451 100.711867,432.707465 100.711867,438.132812 L100.711867,448.58941 C100.711867,458.438368 95.4451333,462.859375 87.7006,462.859375 L73.801,462.859375 L73.801,462.859375 Z" id="Fill-7" fill="#FFFFFE"></path>
            </g>
        </g>
    </g>
</svg>