<svg width="500" height="500" viewBox="0 0 500 500" fill="none" xmlns="http://www.w3.org/2000/svg">
<path d="M480.554 250.277C480.554 382.969 372.969 490.554 240.277 490.554C107.585 490.554 0 382.981 0 250.277C0 117.573 107.585 10 240.277 10C372.969 10 480.554 117.573 480.554 250.277Z" fill="#009ADE"/>
<path d="M425.098 362.391H452.855C412.574 438.611 332.501 490.554 240.289 490.554C107.585 490.554 0 382.981 0 250.277C0 117.573 107.585 10 240.277 10C372.969 10 480.554 117.573 480.554 250.277C480.554 285.796 472.838 319.518 459.006 349.854L452.061 248.596H389.707L382.354 274.591H392.042L361.273 323.405L356.943 248.596H293.713L286.511 274.462L296.153 274.591L254.879 337.248L220.866 337.108C217.306 337.108 203.555 333.805 203.555 316.81C203.555 299.815 219.768 275.057 236.227 275.057L243.148 275.233C241.981 279.423 239.542 288.131 239.542 288.131H269.808L280.687 248.608H234.02C205.014 248.608 181.588 269.326 174.176 290.698L186.292 248.608H144.761L137.466 274.602L148.193 274.579L137.384 312.643L110.153 248.619H71.4469L64.1516 274.614H74.7969L50.705 362.414H81.742C81.742 362.414 93.7412 318.876 96.8228 307.705C101.223 318.28 119.479 362.414 119.479 362.414H154.041L169.892 306.631C168.468 314.942 168.386 323.615 169.845 332.217C172.869 350.485 190.657 362.414 210.045 362.414H272.785L283.617 346.049H327.89L328.789 362.414H367.903L378.011 346.049H423.3L425.086 362.414L425.098 362.391ZM397.785 318.421H423.02L421.806 282.003L397.785 318.421ZM301.417 318.922H326.781L325.497 282.376L301.417 318.922Z" fill="white"/>
<path d="M480.659 362.484C469.99 362.484 461.318 371.168 461.318 381.825C461.318 392.482 470.002 401.166 480.659 401.166C491.316 401.166 500 392.482 500 381.825C500 371.168 491.503 362.484 480.659 362.484ZM495.915 381.825C495.915 390.241 489.075 397.081 480.659 397.081C472.243 397.081 465.403 390.241 465.403 381.825C465.403 373.409 472.103 366.569 480.659 366.569C489.215 366.569 495.915 373.269 495.915 381.825Z" fill="white"/>
<path d="M489.95 377.646C489.95 373.269 485.911 370.573 482.165 370.573H472.873V393.182H477.145V384.638H479.865L485.468 393.182H490.639L484.768 384.416C486.612 383.949 489.938 382.082 489.938 377.658L489.95 377.646ZM485.585 377.658C485.585 379.549 483.81 380.821 482.153 380.821H477.134V374.32H482.153C483.799 374.32 485.585 375.592 485.585 377.658Z" fill="white"/>
</svg>
