<svg xmlns="http://www.w3.org/2000/svg" xmlns:xlink="http://www.w3.org/1999/xlink" viewBox="0,0,256,256" width="128px" height="128px"><g fill="#ffffff" fill-rule="nonzero" stroke="none" stroke-width="1" stroke-linecap="butt" stroke-linejoin="miter" stroke-miterlimit="10" stroke-dasharray="" stroke-dashoffset="0" font-family="none" font-weight="none" font-size="none" text-anchor="none" style="mix-blend-mode: normal"><g transform="scale(2,2)"><path d="M71,46c-1.7,0 -3,1.3 -3,3c0,1.7 1.3,3 3,3h15c0.8,0 1.6,-0.3 2.1,-0.9l9.3,-9.3c1.4,0.7 3,1.1 4.6,1.1c5.5,0 10,-4.5 10,-10c0,-5.5 -4.5,-10 -10,-10c-5.5,0 -10,4.5 -10,10c0,1.7 0.4,3.2 1.1,4.6l-8.3,8.5zM102,29c2.2,0 4,1.8 4,4c0,2.2 -1.8,4 -4,4c-2.2,0 -4,-1.8 -4,-4c0,-2.2 1.8,-4 4,-4zM111,54c-4.5,0 -8.3,2.9 -9.5,7h-30.5c-1.7,0 -3,1.3 -3,3c0,1.7 1.3,3 3,3h30.5c1.3,4.1 5.1,7 9.5,7c5.5,0 10,-4.5 10,-10c0,-5.5 -4.5,-10 -10,-10zM111,68c-2.2,0 -4,-1.8 -4,-4c0,-2.2 1.8,-4 4,-4c2.2,0 4,1.8 4,4c0,2.2 -1.8,4 -4,4zM76,9c-5.5,0 -10,4.5 -10,10c0,5.5 4.5,10 10,10c5.5,0 10,-4.5 10,-10c0,-5.5 -4.5,-10 -10,-10zM76,23c-2.2,0 -4,-1.8 -4,-4c0,-2.2 1.8,-4 4,-4c2.2,0 4,1.8 4,4c0,2.2 -1.8,4 -4,4zM102,105c5.5,0 10,-4.5 10,-10c0,-5.5 -4.5,-10 -10,-10c-1.7,0 -3.2,0.4 -4.6,1.1l-9.3,-9.3c-0.5,-0.5 -1.3,-0.8 -2.1,-0.8h-15c-1.7,0 -3,1.3 -3,3c0,1.7 1.3,3 3,3h13.8l8.4,8.4c-0.7,1.4 -1.1,3 -1.1,4.6c-0.1,5.5 4.4,10 9.9,10zM102,91c2.2,0 4,1.8 4,4c0,2.2 -1.8,4 -4,4c-2.2,0 -4,-1.8 -4,-4c0,-2.2 1.8,-4 4,-4zM76,119c5.5,0 10,-4.5 10,-10c0,-5.5 -4.5,-10 -10,-10c-5.5,0 -10,4.5 -10,10c0,5.5 4.5,10 10,10zM76,105c2.2,0 4,1.8 4,4c0,2.2 -1.8,4 -4,4c-2.2,0 -4,-1.8 -4,-4c0,-2.2 1.8,-4 4,-4zM49,14.2c-5.1,0 -9.4,3.1 -11.2,7.6c-1.2,-0.4 -2.5,-0.6 -3.8,-0.6c-7.2,0 -13,5.8 -13,13c0,0 0,0 0,0.1c-6.3,1.4 -11.1,7 -11.1,13.7c0,2 0.4,3.9 1.2,5.7c-3.8,3.4 -6.1,8.3 -6.1,13.5c0,4.7 1.8,9 4.9,12.3c0,2.9 0.1,7.3 0.1,7.7c0,9.5 7.5,17.4 16.9,18c3,6.1 9.2,10 16.1,10c9.9,0 18,-8.1 18,-18v-71c0,-6.6 -5.4,-12 -12,-12zM37.6,67.2c-1.4,0 -2.6,1 -2.9,2.4c-1.1,5.5 -6,9.6 -11.8,9.6c-2.3,0 -4.5,-0.7 -6.4,-1.9v0c-3.5,-2.2 -5.6,-6 -5.6,-10.1c0,-3.9 1.9,-7.4 5,-9.7h3.9c1.5,0 2.8,-1 3.1,-2.4c0.4,-1.9 -1.1,-3.6 -2.9,-3.6h-3.2c-0.6,-1.1 -0.9,-2.3 -0.9,-3.6c0,-3.9 2.8,-7.1 6.5,-7.8c2.1,4.1 6.3,7 11.2,7.1c1.7,0 3.2,-1.2 3.3,-2.9c0.1,-1.7 -1.3,-3.1 -3,-3.1c-3.1,0 -5.8,-2.1 -6.7,-4.9c-0.1,-0.3 -0.2,-0.6 -0.2,-0.9c0,-0.1 0,-0.1 0,-0.2c0,-0.3 -0.1,-0.6 -0.1,-1c0,-3.9 3.1,-7 7,-7c1.5,0 3,0.5 4.2,1.4c0.7,0.5 1.7,0.8 2.6,0.5c1.3,-0.4 2.2,-1.6 2.2,-2.9c0,0 0,0 0,-0.1c0,-3.5 3.2,-6.4 6.8,-5.9c3,0.4 5.2,3.1 5.2,6.2v70.4c0,5.8 -4,11 -9.6,12.1c-6,1.2 -11.7,-2.3 -13.7,-7.8c-0.4,-1.3 -1.7,-2.1 -3,-2h-0.3c-0.1,0 -0.3,0 -0.4,0c-6.6,0 -12,-5.4 -12,-12c0,-0.2 0,-1.7 0.1,-3.4c2.1,0.9 4.5,1.4 6.9,1.4c8.7,0 16,-6.2 17.7,-14.5c0.4,-1.8 -1,-3.5 -2.9,-3.5h-0.1z"></path></g></g></svg>