<svg xmlns="http://www.w3.org/2000/svg"  viewBox="0 0 100 100" width="100px" height="100px" baseProfile="basic"><circle cx="45.493" cy="23.493" r="3.5"/><circle cx="54.5" cy="76.5" r="3.5"/><path d="M53.406,87H43.5c-7.34,0-13.396-5.771-13.5-12.864v-5.135l-3.874,0.003C19.011,69.004,13,62.929,13,55.738V46	c0-8.103,6.725-14.682,15.31-14.977L32,31.013v-4.138C32,19.225,38.617,13,46.75,13h9.905c3.694,0,7.275,1.468,9.826,4.027	c2.279,2.288,3.529,5.254,3.519,8.352v5.609l3.754,0.034C80.935,31.024,87,36.972,87,44.012v9.738	c0,8.117-6.924,14.96-15.434,15.253l-3.574-0.002L68,73.112C68,80.771,61.453,87,53.406,87z M31,67c0.265,0,0.52,0.105,0.707,0.293	S32,67.734,32,68v6.121C32.088,80.113,37.247,85,43.5,85h9.906C60.351,85,66,79.668,66,73.114l-0.01-5.112	c-0.001-0.266,0.104-0.521,0.293-0.709C66.471,67.105,66.725,67,66.99,67h0.001l4.542,0.004C78.943,66.748,85,60.802,85,53.75	v-9.738c0-5.957-5.152-10.989-11.25-10.989c-0.003,0-0.006,0-0.009,0l-4.75-0.043c-0.549-0.005-0.991-0.451-0.991-1v-6.604	c0.009-2.565-1.033-5.027-2.936-6.936C62.887,16.254,59.821,15,56.655,15H46.75C39.72,15,34,20.327,34,26.875v5.135	c0,0.551-0.446,0.998-0.997,1l-4.656,0.013C20.876,33.28,15,38.981,15,46v9.738c0,6.001,5.198,11.266,11.125,11.266L31,67L31,67z"/><path d="M52.375,33h-19.5c-0.276,0-0.5-0.224-0.5-0.5s0.224-0.5,0.5-0.5h19.5c0.276,0,0.5,0.224,0.5,0.5S52.651,33,52.375,33z"/><path d="M67,68H47.5c-0.276,0-0.5-0.224-0.5-0.5s0.224-0.5,0.5-0.5H67c0.276,0,0.5,0.224,0.5,0.5S67.276,68,67,68z"/><path d="M67,65H54.5c-0.276,0-0.5-0.224-0.5-0.5s0.224-0.5,0.5-0.5H67c0.276,0,0.5,0.224,0.5,0.5S67.276,65,67,65z"/><path fill="#1f212b" d="M51.5,65h-4c-0.276,0-0.5-0.224-0.5-0.5s0.224-0.5,0.5-0.5h4c0.276,0,0.5,0.224,0.5,0.5	S51.776,65,51.5,65z"/><path d="M45.5,36H33c-0.276,0-0.5-0.224-0.5-0.5S32.724,35,33,35h12.5c0.276,0,0.5,0.224,0.5,0.5S45.776,36,45.5,36z"/><path d="M52.5,36h-4c-0.276,0-0.5-0.224-0.5-0.5s0.224-0.5,0.5-0.5h4c0.276,0,0.5,0.224,0.5,0.5S52.776,36,52.5,36z"/><path d="M68.112,42.125c-0.044,0-0.09-0.006-0.135-0.019c-0.266-0.074-0.421-0.35-0.347-0.616C67.876,40.612,68,39.699,68,38.774	v-6.649c0-0.276,0.224-0.5,0.5-0.5s0.5,0.224,0.5,0.5v6.649c0,1.016-0.137,2.02-0.406,2.985	C68.532,41.98,68.331,42.125,68.112,42.125z"/><path d="M57.875,50c-0.276,0-0.5-0.224-0.5-0.5s0.224-0.5,0.5-0.5c3.304,0,6.54-1.782,8.446-4.651	c0.153-0.232,0.465-0.292,0.692-0.14c0.23,0.152,0.293,0.463,0.14,0.692C65.064,48.047,61.509,50,57.875,50z"/><path fill="#1f212b" d="M55.875,50H53.25c-0.276,0-0.5-0.224-0.5-0.5s0.224-0.5,0.5-0.5h2.625c0.276,0,0.5,0.224,0.5,0.5	S56.151,50,55.875,50z"/><path fill="#1f212b" d="M31.5,74.625c-0.276,0-0.5-0.224-0.5-0.5V60.916C31.105,54.342,36.659,49,43.379,49h6.996	c0.276,0,0.5,0.224,0.5,0.5s-0.224,0.5-0.5,0.5h-6.996C37.201,50,32.097,54.9,32,60.924v13.201C32,74.401,31.776,74.625,31.5,74.625	z"/></svg>